<svg id="Layer_1" data-name="Layer 1" xmlns="http://www.w3.org/2000/svg" viewBox="0 0 126 126"><defs><style>.cls-1{fill:#ed1e79;stroke:#ed1e79;}.cls-1,.cls-3{stroke-miterlimit:10;}.cls-2{opacity:0.55;}.cls-3{fill:#fff;stroke:#000;}</style></defs><title>pink_circle_paper</title><circle class="cls-1" cx="63" cy="63" r="62.5"/><g class="cls-2"><rect class="cls-3" x="219.7" y="110" width="60.61" height="80" rx="12" ry="12" transform="translate(-219.84 133.71) rotate(-45)"/><line class="cls-3" x1="23.72" y1="56.71" x2="56.71" y2="23.72"/><line class="cls-3" x1="27.86" y1="60.86" x2="60.86" y2="27.86"/><line class="cls-3" x1="32" y1="65" x2="65" y2="32"/><line class="cls-3" x1="36.14" y1="69.14" x2="69.14" y2="36.14"/><line class="cls-3" x1="40.29" y1="73.29" x2="73.29" y2="40.29"/><line class="cls-3" x1="44.43" y1="77.43" x2="77.43" y2="44.43"/><line class="cls-3" x1="48.57" y1="81.57" x2="81.57" y2="48.57"/><line class="cls-3" x1="52.71" y1="85.71" x2="85.71" y2="52.71"/><line class="cls-3" x1="56.86" y1="89.86" x2="89.86" y2="56.86"/><line class="cls-3" x1="61" y1="94" x2="94" y2="61"/><line class="cls-3" x1="65.14" y1="98.14" x2="98.14" y2="65.14"/><line class="cls-3" x1="69.29" y1="102.28" x2="102.28" y2="69.29"/></g></svg>