<svg id="Layer_2" data-name="Layer 2" xmlns="http://www.w3.org/2000/svg" viewBox="0 0 32 32"><defs><style>.cls-1{fill:#ed1e79;}.cls-2{fill:#fff;}</style></defs><title>pink_infinity_favicon</title><path class="cls-1" d="M384,244v32h32V244Zm22.37,22.83c-2.63,0-4.81-1.58-6.37-3.21-1.56,1.63-3.74,3.21-6.37,3.21a6.83,6.83,0,1,1,0-13.66c2.57,0,4.77,1.59,6.34,3.24,1.57-1.65,3.76-3.24,6.4-3.24a6.83,6.83,0,0,1,0,13.66Z" transform="translate(-384 -244)"/><path class="cls-2" d="M406.37,253.17c-2.64,0-4.83,1.59-6.4,3.24-1.57-1.65-3.77-3.24-6.34-3.24a6.83,6.83,0,1,0,0,13.66c2.63,0,4.81-1.58,6.37-3.21,1.56,1.63,3.74,3.21,6.37,3.21a6.83,6.83,0,0,0,0-13.66Zm-12.79,9.69a2.86,2.86,0,0,1,0-5.71c2.29,0,3.77,2.85,3.77,2.85S395.87,262.86,393.58,262.86Zm12.84,0c-2.29,0-3.78-2.87-3.78-2.87s1.49-2.85,3.78-2.85a2.86,2.86,0,0,1,0,5.72Z" transform="translate(-384 -244)"/><path class="cls-1" d="M406.42,257.14c-2.29,0-3.78,2.85-3.78,2.85s1.49,2.87,3.78,2.87a2.86,2.86,0,0,0,0-5.72Z" transform="translate(-384 -244)"/><path class="cls-1" d="M393.58,257.15a2.86,2.86,0,0,0,0,5.71c2.29,0,3.77-2.86,3.77-2.86S395.87,257.15,393.58,257.15Z" transform="translate(-384 -244)"/></svg>