<?xml version="1.0" encoding="utf-8"?>
<!-- Generator: Adobe Illustrator 22.0.1, SVG Export Plug-In . SVG Version: 6.00 Build 0)  -->
<svg version="1.1" id="Layer_1" xmlns="http://www.w3.org/2000/svg" xmlns:xlink="http://www.w3.org/1999/xlink" x="0px" y="0px"
	 viewBox="0 0 126 126" style="enable-background:new 0 0 126 126;" xml:space="preserve">
<style type="text/css">
	.st0{fill:#ED1E79;stroke:#ED1E79;stroke-miterlimit:10;}
	.st1{fill:none;stroke:#FFFFFF;stroke-miterlimit:10;}
</style>
<title>pink_circle_stationery</title>
<circle class="st0" cx="63" cy="63" r="62.5"/>
<g>
	<g>
		<path class="st1" d="M78.7,92.3L34.3,47.8c-4.1-4.1-4.1-10.7,0-14.8l0,0C38.3,29,45,29,49.1,33l44.4,44.4"/>
		<path class="st1" d="M93.9,77.8c-0.2,0.2-0.5,0.2-0.7,0L48.7,33.4c-3.9-3.9-10.2-3.9-14.1,0s-3.9,10.2,0,14.1L79,91.9
			c0.2,0.2,0.2,0.5,0,0.7c-0.2,0.2-0.5,0.2-0.7,0L33.9,48.2c-4.3-4.3-4.3-11.3,0-15.5s11.3-4.3,15.5,0l44.4,44.4
			C94.1,77.3,94.1,77.6,93.9,77.8z"/>
	</g>
	<g>
		<path class="st1" d="M60.2,49.1l32.1,32.1c3.4,3.4,3.4,8.9,0,12.3l0,0c-3.4,3.4-8.9,3.4-12.3,0L47.8,61.4"/>
		<path class="st1" d="M92.6,93.9c-3.6,3.6-9.5,3.6-13.1,0L47.5,61.8c-0.2-0.2-0.2-0.5,0-0.7c0.2-0.2,0.5-0.2,0.7,0l32.1,32.1
			c3.2,3.2,8.4,3.2,11.6,0c3.2-3.2,3.2-8.4,0-11.6L59.8,49.4c-0.2-0.2-0.2-0.5,0-0.7s0.5-0.2,0.7,0l32.1,32.1
			C96.2,84.4,96.2,90.2,92.6,93.9z"/>
	</g>
	<g>
		<path class="st1" d="M83.6,87.3L51.5,55.2c-2-2-2-5.4,0-7.4l0,0c2-2,5.4-2,7.4,0L91,79.9"/>
		<path class="st1" d="M91.4,80.3c-0.2,0.2-0.5,0.2-0.7,0L58.6,48.2c-1.8-1.8-4.8-1.8-6.7,0c-1.8,1.8-1.8,4.8,0,6.7L84,86.9
			c0.2,0.2,0.2,0.5,0,0.7c-0.2,0.2-0.5,0.2-0.7,0L51.2,55.6c-2.2-2.2-2.2-5.9,0-8.1c2.2-2.2,5.9-2.2,8.1,0l32.1,32.1
			C91.6,79.7,91.6,80.1,91.4,80.3z"/>
	</g>
</g>
</svg>
