<svg id="Layer_1" data-name="Layer 1" xmlns="http://www.w3.org/2000/svg" viewBox="0 0 126 126"><defs><style>.cls-1{fill:#97144e;stroke:#97144e;}.cls-1,.cls-2{stroke-miterlimit:10;}.cls-2{fill:none;stroke:#fff;}</style></defs><title>purple_circle_stationery</title><circle class="cls-1" cx="63" cy="63" r="62.5"/><path class="cls-2" d="M78.7,92.3,34.3,47.8a10.44,10.44,0,0,1,0-14.8h0a10.63,10.63,0,0,1,14.8,0L93.5,77.4"/><path class="cls-2" d="M93.9,77.8a.48.48,0,0,1-.7,0L48.7,33.4A10,10,0,0,0,34.6,47.5L79,91.9a.49.49,0,1,1-.7.7L33.9,48.2A11,11,0,0,1,49.4,32.7L93.8,77.1A.43.43,0,0,1,93.9,77.8Z"/><path class="cls-2" d="M60.2,49.1,92.3,81.2a8.69,8.69,0,0,1,0,12.3h0a8.69,8.69,0,0,1-12.3,0L47.8,61.4"/><path class="cls-2" d="M92.6,93.9a9.29,9.29,0,0,1-13.1,0l-32-32.1a.49.49,0,0,1,.7-.7L80.3,93.2A8.2,8.2,0,0,0,91.9,81.6L59.8,49.4a.49.49,0,1,1,.7-.7L92.6,80.8A9.29,9.29,0,0,1,92.6,93.9Z"/><path class="cls-2" d="M83.6,87.3,51.5,55.2a5.31,5.31,0,0,1,0-7.4h0a5.31,5.31,0,0,1,7.4,0L91,79.9"/><path class="cls-2" d="M91.4,80.3a.48.48,0,0,1-.7,0L58.6,48.2a4.74,4.74,0,1,0-6.7,6.7L84,86.9a.49.49,0,1,1-.7.7l-32.1-32a5.73,5.73,0,1,1,8.1-8.1L91.4,79.6C91.6,79.7,91.6,80.1,91.4,80.3Z"/></svg>